<svg xmlns="http://www.w3.org/2000/svg" width="600" height="700" viewBox="0 0 600 700">
  <!-- placeholder chin-length bob: outer hair mass with a face-shaped cutout -->
  <path fill="#2b2320" fill-rule="evenodd" d="
    M300 40
    C170 40 108 150 104 300
    C102 400 120 480 150 540
    C168 500 176 430 180 360
    C190 470 210 520 250 560
    L250 300
    C250 250 268 220 300 220
    C332 220 350 250 350 300
    L350 560
    C390 520 410 470 420 360
    C424 430 432 500 450 540
    C480 480 498 400 496 300
    C492 150 430 40 300 40 Z
    M300 250
    C255 250 232 300 232 370
    C232 450 262 510 300 510
    C338 510 368 450 368 370
    C368 300 345 250 300 250 Z
  "/>
</svg>
